<?xml version="1.0" encoding="utf-8"?><svg xmlns="http://www.w3.org/2000/svg" xmlns:xlink="http://www.w3.org/1999/xlink"><symbol viewBox="0 0 480 480" id="bag" xmlns="http://www.w3.org/2000/svg"><path d="M372.052 480H107.948c-23.46 0-41.906-20.152-39.845-43.516l24.353-276C94.291 139.685 111.42 124 132.301 124H157V83c0-45.767 37.233-83 83-83s83 37.233 83 83v41h24.699a8 8 0 0 1 0 16H323v36a8 8 0 0 1-16 0v-36H202a8 8 0 0 1 0-16h105V83c0-36.944-30.056-67-67-67s-67 30.056-67 67v93a8 8 0 0 1-16 0v-36h-24.699c-12.528 0-22.806 9.411-23.907 21.891l-24.353 276C82.8 451.953 93.848 464 107.948 464h264.104c14.117 0 25.147-12.064 23.907-26.109l-24.353-276a8 8 0 0 1 15.938-1.406l24.353 276c2.062 23.369-16.39 43.515-39.845 43.515zM194 411h-58a8 8 0 0 0 0 16h58a8 8 0 0 0 0-16zm0-40h-58a8 8 0 0 0 0 16h58a8 8 0 0 0 0-16z"/></symbol><symbol viewBox="0 -28 512.001 512" id="heart" xmlns="http://www.w3.org/2000/svg"><path d="M256 455.516a30.022 30.022 0 0 1-19.793-7.438c-20.684-18.086-40.625-35.082-58.219-50.074l-.09-.078c-51.582-43.957-96.125-81.918-127.117-119.313C16.137 236.81 0 197.172 0 153.871c0-42.07 14.426-80.883 40.617-109.293C67.121 15.832 103.488 0 143.031 0c29.555 0 56.621 9.344 80.446 27.77C235.5 37.07 246.398 48.453 256 61.73c9.605-13.277 20.5-24.66 32.527-33.96C312.352 9.344 339.418 0 368.973 0c39.539 0 75.91 15.832 102.414 44.578C497.578 72.988 512 111.801 512 153.871c0 43.3-16.133 82.938-50.777 124.738-30.993 37.399-75.532 75.356-127.106 119.309-17.625 15.016-37.597 32.039-58.328 50.168a30.046 30.046 0 0 1-19.789 7.43zM143.031 29.992c-31.066 0-59.605 12.399-80.367 34.914-21.07 22.856-32.676 54.45-32.676 88.965 0 36.418 13.535 68.988 43.883 105.606 29.332 35.394 72.961 72.574 123.477 115.625l.093.078c17.66 15.05 37.68 32.113 58.516 50.332 20.961-18.254 41.012-35.344 58.707-50.418 50.512-43.051 94.137-80.223 123.469-115.617 30.344-36.618 43.879-69.188 43.879-105.606 0-34.516-11.606-66.11-32.676-88.965-20.758-22.515-49.3-34.914-80.363-34.914-22.758 0-43.653 7.235-62.102 21.5-16.441 12.719-27.894 28.797-34.61 40.047-3.452 5.785-9.53 9.238-16.261 9.238s-12.809-3.453-16.262-9.238c-6.71-11.25-18.164-27.328-34.61-40.047-18.448-14.265-39.343-21.5-62.097-21.5zm0 0"/></symbol><symbol viewBox="0 0 512.021 512.021" id="phone" xmlns="http://www.w3.org/2000/svg"><path d="M367.988 512.021c-16.528 0-32.916-2.922-48.941-8.744-70.598-25.646-136.128-67.416-189.508-120.795S34.389 263.572 8.744 192.974c-8.241-22.688-10.673-46.108-7.226-69.612 3.229-22.016 11.757-43.389 24.663-61.809 12.963-18.501 30.245-33.889 49.977-44.5C97.2 5.738 120.167 0 144.423 0a16.002 16.002 0 0 1 15.645 12.647l25.114 117.199a16.004 16.004 0 0 1-4.331 14.667l-42.913 42.912c40.482 80.486 106.17 146.174 186.656 186.656l42.912-42.913a16.01 16.01 0 0 1 14.667-4.331l117.199 25.114a16 16 0 0 1 12.647 15.645c0 24.256-5.738 47.224-17.054 68.266-10.611 19.732-25.999 37.014-44.5 49.977-18.419 12.906-39.792 21.434-61.809 24.663a142.318 142.318 0 0 1-20.668 1.519zM131.639 32.7c-31.995 3.532-60.393 20.302-79.251 47.217-21.206 30.265-26.151 67.49-13.567 102.132C88.125 317.775 194.246 423.896 329.972 473.2c34.641 12.584 71.866 7.64 102.132-13.567 26.915-18.858 43.685-47.256 47.217-79.251l-95.341-20.43-44.816 44.816a15.998 15.998 0 0 1-18.117 3.168c-95.19-44.72-172.242-121.772-216.962-216.962a15.999 15.999 0 0 1 3.168-18.117l44.816-44.816z"/></symbol><symbol viewBox="0 0 60 60" id="time" xmlns="http://www.w3.org/2000/svg"><path d="M30 0C13.458 0 0 13.458 0 30s13.458 30 30 30 30-13.458 30-30S46.542 0 30 0zm0 58C14.561 58 2 45.439 2 30S14.561 2 30 2s28 12.561 28 28-12.561 28-28 28z"/><path d="M30 6a1 1 0 0 0-1 1v23H14a1 1 0 1 0 0 2h16a1 1 0 0 0 1-1V7a1 1 0 0 0-1-1z"/></symbol><symbol viewBox="0 0 512 512" id="user" xmlns="http://www.w3.org/2000/svg"><path d="M256 0c-74.439 0-135 60.561-135 135s60.561 135 135 135 135-60.561 135-135S330.439 0 256 0zm0 240c-57.897 0-105-47.103-105-105S198.103 30 256 30s105 47.103 105 105-47.103 105-105 105zm41.833 61h-83.667C144.964 301 76.669 332.951 31 401.458V512h450V401.458C435.397 333.05 367.121 301 297.833 301zm153.168 181H61v-71.363C96.031 360.683 152.952 331 214.167 331h83.667c61.215 0 118.135 29.683 153.167 79.637V482z"/></symbol></svg>